<svg width="39" height="26" viewBox="0 0 39 26" fill="none" xmlns="http://www.w3.org/2000/svg">
<rect y="0.406006" width="38.1912" height="25.2306" rx="1.90956" fill="#EDEDED"/>
<path d="M33.4175 13.6773V12.3506H31.3085V10.1101H29.7978V12.3506H27.6888V13.6773H29.7978V15.9326H31.3085V13.6773H33.4175Z" fill="#00003D"/>
<path d="M11.493 6.22827C12.2431 6.22827 12.934 6.3143 13.5657 6.48634C14.1974 6.6461 14.7435 6.89189 15.2041 7.2237C15.6647 7.54322 16.0201 7.93647 16.2701 8.40346C16.5333 8.87045 16.6649 9.39889 16.6649 9.98877C16.6649 10.6893 16.507 11.359 16.1911 11.9981C15.8885 12.6371 15.441 13.2577 14.8488 13.8599C14.2698 14.462 13.5591 15.0519 12.7169 15.6295C11.8747 16.1948 10.9271 16.7601 9.87433 17.3254H16.7241V19.814H5.72891V17.3254C6.6896 16.6741 7.63054 16.0412 8.55174 15.4267C9.47295 14.8 10.2889 14.1917 10.9995 13.6018C11.7233 12.9996 12.3024 12.4159 12.7366 11.8506C13.1709 11.2853 13.3881 10.7261 13.3881 10.1731C13.3881 9.59551 13.1907 9.17154 12.7959 8.90117C12.4011 8.61852 11.9339 8.4772 11.3943 8.4772C11.1048 8.4772 10.8153 8.52635 10.5257 8.62467C10.2494 8.71069 9.99935 8.85816 9.77563 9.06708C9.56507 9.27599 9.39399 9.56479 9.26238 9.93347C9.13078 10.2899 9.07814 10.7323 9.10446 11.2607H5.88683C5.86051 10.4742 5.97895 9.76756 6.24215 9.14081C6.51851 8.51406 6.90674 7.98563 7.40682 7.55551C7.9069 7.12538 8.50568 6.79972 9.20316 6.57851C9.90065 6.34502 10.6639 6.22827 11.493 6.22827Z" fill="#00003D"/>
<path d="M21.5871 19.814V10.8367H18.33V8.60623C18.9222 8.59394 19.4355 8.54479 19.8697 8.45876C20.3172 8.36045 20.6988 8.22527 21.0147 8.05322C21.3305 7.88117 21.5937 7.66611 21.8043 7.40804C22.0148 7.13767 22.1991 6.81815 22.357 6.44948H24.8245V19.814H21.5871Z" fill="#00003D"/>
</svg>
