<svg width="128" height="39" viewBox="0 0 128 39" fill="none" xmlns="http://www.w3.org/2000/svg">
<rect x="0.771335" y="1.15708" width="126.751" height="36.9776" rx="4.29651" stroke="#EDEDED" stroke-width="0.954779"/>
<path d="M123.27 38.1347H5.02379C2.68714 38.1347 0.771335 36.2158 0.771335 33.8705V5.42124C0.771335 3.07593 2.68714 1.15708 5.02379 1.15708H123.27C125.606 1.15708 127.522 3.07593 127.522 5.42124V33.8705C127.522 36.2158 125.606 38.1347 123.27 38.1347Z" stroke="#EDEDED" stroke-width="0.954779"/>
<path d="M45.1511 10.3901C45.1511 11.1867 44.9147 11.8221 44.4417 12.2868C43.9119 12.8463 43.2119 13.1308 42.3605 13.1308C41.5375 13.1308 40.847 12.8463 40.2699 12.2773C39.6929 11.7083 39.4091 10.9971 39.4091 10.1625C39.4091 9.31855 39.6929 8.6168 40.2699 8.04781C40.847 7.47883 41.5375 7.19434 42.3605 7.19434C42.7673 7.19434 43.1552 7.2702 43.5241 7.43141C43.893 7.59263 44.1863 7.80125 44.4133 8.06678L43.9119 8.56938C43.5335 8.12368 43.0227 7.89609 42.3605 7.89609C41.7646 7.89609 41.2443 8.10471 40.8092 8.53145C40.374 8.94871 40.1564 9.49873 40.1564 10.172C40.1564 10.8453 40.374 11.3953 40.8092 11.8126C41.2443 12.2299 41.7646 12.448 42.3605 12.448C42.9943 12.448 43.5241 12.2393 43.9498 11.8126C44.2241 11.5376 44.3849 11.1488 44.4228 10.6557H42.3605V9.9634H45.1133C45.1322 10.1151 45.1511 10.2574 45.1511 10.3901Z" fill="#EDEDED"/>
<path d="M49.5123 8.02108H46.93V9.82287H49.2569V10.5057H46.93V12.3074H49.5123V13.0092H46.2016V7.31934H49.5123V8.02108Z" fill="#EDEDED"/>
<path d="M52.5865 13.0092H51.8581V8.02108H50.2689V7.31934H54.1663V8.02108H52.5771V13.0092H52.5865Z" fill="#EDEDED"/>
<path d="M56.9948 13.0092V7.31934H57.7232V13.0092H56.9948Z" fill="#EDEDED"/>
<path d="M60.9584 13.0092H60.23V8.02108H58.6408V7.31934H62.5382V8.02108H60.949V13.0092H60.9584Z" fill="#EDEDED"/>
<path d="M69.9266 12.2678C69.3684 12.8463 68.6779 13.1308 67.8454 13.1308C67.013 13.1308 66.3224 12.8463 65.7643 12.2678C65.2062 11.6893 64.9319 10.9876 64.9319 10.1625C64.9319 9.33752 65.2062 8.62628 65.7643 8.0573C66.3224 7.47883 67.013 7.19434 67.8454 7.19434C68.6684 7.19434 69.359 7.47883 69.9266 8.0573C70.4847 8.63577 70.7685 9.33752 70.7685 10.1625C70.759 10.9971 70.4847 11.6988 69.9266 12.2678ZM66.3035 11.7936C66.7197 12.2204 67.24 12.429 67.8454 12.429C68.4509 12.429 68.9711 12.2204 69.3874 11.7936C69.8036 11.3669 70.0212 10.8264 70.0212 10.1625C70.0212 9.49873 69.813 8.95819 69.3874 8.53145C68.9711 8.10471 68.4509 7.8866 67.8454 7.8866C67.24 7.8866 66.7197 8.09523 66.3035 8.52197C65.8873 8.95819 65.6697 9.49873 65.6697 10.1625C65.6697 10.8264 65.8873 11.3669 66.3035 11.7936Z" fill="#EDEDED"/>
<path d="M71.7897 13.0092V7.31934H72.6789L75.4411 11.7479H75.4695L75.4411 10.6479V7.31934H76.1695V13.0092H75.4127L72.5275 8.37196H72.4991L72.5275 9.472V13.0092H71.7897Z" fill="#EDEDED"/>
<mask id="path-10-inside-1_111_1866" fill="white">
<path d="M64.7508 21.3054C62.5278 21.3054 60.7115 23.0029 60.7115 25.3358C60.7115 27.6591 62.5278 29.3661 64.7508 29.3661C66.9738 29.3661 68.7901 27.6591 68.7901 25.3358C68.7901 23.0029 66.9738 21.3054 64.7508 21.3054ZM64.7508 27.7824C63.5305 27.7824 62.4805 26.7772 62.4805 25.3358C62.4805 23.8848 63.5305 22.8891 64.7508 22.8891C65.9711 22.8891 67.0211 23.8848 67.0211 25.3358C67.0211 26.7772 65.9616 27.7824 64.7508 27.7824ZM55.9344 21.3054C53.7114 21.3054 51.8951 23.0029 51.8951 25.3358C51.8951 27.6591 53.7114 29.3661 55.9344 29.3661C58.1574 29.3661 59.9737 27.6591 59.9737 25.3358C59.9737 23.0029 58.1574 21.3054 55.9344 21.3054ZM55.9344 27.7824C54.7141 27.7824 53.6641 26.7772 53.6641 25.3358C53.6641 23.8848 54.7141 22.8891 55.9344 22.8891C57.1547 22.8891 58.2047 23.8848 58.2047 25.3358C58.2047 26.7772 57.1547 27.7824 55.9344 27.7824ZM45.4531 22.5477V24.2547H49.5396C49.4167 25.2125 49.095 25.9237 48.6126 26.4074C48.0166 27.0048 47.0896 27.6591 45.4625 27.6591C42.9462 27.6591 40.9786 25.6297 40.9786 23.1072C40.9786 20.5847 42.9462 18.5553 45.4625 18.5553C46.8152 18.5553 47.8085 19.0864 48.5369 19.7787L49.7383 18.5743C48.7166 17.5976 47.3639 16.8484 45.4531 16.8484C42.0097 16.8484 39.1151 19.6554 39.1151 23.1167C39.1151 26.5686 42.0097 29.385 45.4531 29.385C47.3166 29.385 48.7166 28.7781 49.814 27.6307C50.9397 26.5022 51.2897 24.909 51.2897 23.6288C51.2897 23.2305 51.2613 22.8607 51.1951 22.5572H45.4531V22.5477ZM88.3149 23.8754C87.9838 22.9745 86.9621 21.3054 84.8715 21.3054C82.7999 21.3054 81.0782 22.9365 81.0782 25.3358C81.0782 27.5927 82.781 29.3661 85.0702 29.3661C86.9148 29.3661 87.9838 28.2376 88.4189 27.5833L87.0473 26.6634C86.5932 27.3367 85.9689 27.7824 85.0702 27.7824C84.1715 27.7824 83.5283 27.3651 83.1215 26.5591L88.5041 24.3306L88.3149 23.8754ZM82.8283 25.222C82.781 23.6667 84.0296 22.8702 84.9283 22.8702C85.6283 22.8702 86.2243 23.221 86.4229 23.7236L82.8283 25.222ZM78.4579 29.129H80.2268V17.2751H78.4579V29.129ZM75.5632 22.2063H75.497C75.0997 21.7322 74.3429 21.3054 73.378 21.3054C71.3631 21.3054 69.5185 23.0788 69.5185 25.3547C69.5185 27.6117 71.3631 29.3756 73.378 29.3756C74.3335 29.3756 75.0997 28.9488 75.497 28.4557H75.5538V29.0342C75.5538 30.5799 74.7308 31.4049 73.4064 31.4049C72.328 31.4049 71.6564 30.6273 71.382 29.973L69.8401 30.6178C70.2847 31.6894 71.4577 32.9981 73.4064 32.9981C75.4781 32.9981 77.2281 31.7748 77.2281 28.7971V21.552H75.5538V22.2063H75.5632ZM73.5294 27.7824C72.3091 27.7824 71.2874 26.7582 71.2874 25.3547C71.2874 23.9323 72.3091 22.8986 73.5294 22.8986C74.7308 22.8986 75.6767 23.9417 75.6767 25.3547C75.6862 26.7582 74.7402 27.7824 73.5294 27.7824ZM96.6015 17.2751H92.3731V29.129H94.142V24.634H96.611C98.5692 24.634 100.489 23.2115 100.489 20.9546C100.489 18.6976 98.5502 17.2751 96.6015 17.2751ZM96.6394 22.984H94.1326V18.9157H96.6394C97.9637 18.9157 98.7111 20.0157 98.7111 20.9451C98.7111 21.8744 97.9637 22.984 96.6394 22.984ZM107.556 21.2865C106.279 21.2865 104.954 21.8555 104.406 23.0977L105.976 23.7521C106.307 23.0978 106.932 22.8796 107.584 22.8796C108.502 22.8796 109.429 23.4297 109.438 24.4064V24.5297C109.117 24.3495 108.436 24.0745 107.594 24.0745C105.9 24.0745 104.188 25.0039 104.188 26.7393C104.188 28.3229 105.569 29.3471 107.121 29.3471C108.303 29.3471 108.965 28.8161 109.372 28.1902H109.429V29.11H111.132V24.5676C111.141 22.4624 109.571 21.2865 107.556 21.2865ZM107.338 27.7824C106.761 27.7824 105.957 27.4884 105.957 26.7772C105.957 25.8668 106.96 25.5159 107.83 25.5159C108.606 25.5159 108.975 25.6866 109.438 25.9142C109.306 27.0048 108.36 27.7824 107.338 27.7824ZM117.347 21.5425L115.322 26.6824H115.266L113.165 21.5425H111.264L114.414 28.7307L112.617 32.7231H114.461L119.314 21.5425H117.347ZM101.454 29.129H103.223V17.2751H101.454V29.129Z"/>
</mask>
<path d="M64.7508 21.3054C62.5278 21.3054 60.7115 23.0029 60.7115 25.3358C60.7115 27.6591 62.5278 29.3661 64.7508 29.3661C66.9738 29.3661 68.7901 27.6591 68.7901 25.3358C68.7901 23.0029 66.9738 21.3054 64.7508 21.3054ZM64.7508 27.7824C63.5305 27.7824 62.4805 26.7772 62.4805 25.3358C62.4805 23.8848 63.5305 22.8891 64.7508 22.8891C65.9711 22.8891 67.0211 23.8848 67.0211 25.3358C67.0211 26.7772 65.9616 27.7824 64.7508 27.7824ZM55.9344 21.3054C53.7114 21.3054 51.8951 23.0029 51.8951 25.3358C51.8951 27.6591 53.7114 29.3661 55.9344 29.3661C58.1574 29.3661 59.9737 27.6591 59.9737 25.3358C59.9737 23.0029 58.1574 21.3054 55.9344 21.3054ZM55.9344 27.7824C54.7141 27.7824 53.6641 26.7772 53.6641 25.3358C53.6641 23.8848 54.7141 22.8891 55.9344 22.8891C57.1547 22.8891 58.2047 23.8848 58.2047 25.3358C58.2047 26.7772 57.1547 27.7824 55.9344 27.7824ZM45.4531 22.5477V24.2547H49.5396C49.4167 25.2125 49.095 25.9237 48.6126 26.4074C48.0166 27.0048 47.0896 27.6591 45.4625 27.6591C42.9462 27.6591 40.9786 25.6297 40.9786 23.1072C40.9786 20.5847 42.9462 18.5553 45.4625 18.5553C46.8152 18.5553 47.8085 19.0864 48.5369 19.7787L49.7383 18.5743C48.7166 17.5976 47.3639 16.8484 45.4531 16.8484C42.0097 16.8484 39.1151 19.6554 39.1151 23.1167C39.1151 26.5686 42.0097 29.385 45.4531 29.385C47.3166 29.385 48.7166 28.7781 49.814 27.6307C50.9397 26.5022 51.2897 24.909 51.2897 23.6288C51.2897 23.2305 51.2613 22.8607 51.1951 22.5572H45.4531V22.5477ZM88.3149 23.8754C87.9838 22.9745 86.9621 21.3054 84.8715 21.3054C82.7999 21.3054 81.0782 22.9365 81.0782 25.3358C81.0782 27.5927 82.781 29.3661 85.0702 29.3661C86.9148 29.3661 87.9838 28.2376 88.4189 27.5833L87.0473 26.6634C86.5932 27.3367 85.9689 27.7824 85.0702 27.7824C84.1715 27.7824 83.5283 27.3651 83.1215 26.5591L88.5041 24.3306L88.3149 23.8754ZM82.8283 25.222C82.781 23.6667 84.0296 22.8702 84.9283 22.8702C85.6283 22.8702 86.2243 23.221 86.4229 23.7236L82.8283 25.222ZM78.4579 29.129H80.2268V17.2751H78.4579V29.129ZM75.5632 22.2063H75.497C75.0997 21.7322 74.3429 21.3054 73.378 21.3054C71.3631 21.3054 69.5185 23.0788 69.5185 25.3547C69.5185 27.6117 71.3631 29.3756 73.378 29.3756C74.3335 29.3756 75.0997 28.9488 75.497 28.4557H75.5538V29.0342C75.5538 30.5799 74.7308 31.4049 73.4064 31.4049C72.328 31.4049 71.6564 30.6273 71.382 29.973L69.8401 30.6178C70.2847 31.6894 71.4577 32.9981 73.4064 32.9981C75.4781 32.9981 77.2281 31.7748 77.2281 28.7971V21.552H75.5538V22.2063H75.5632ZM73.5294 27.7824C72.3091 27.7824 71.2874 26.7582 71.2874 25.3547C71.2874 23.9323 72.3091 22.8986 73.5294 22.8986C74.7308 22.8986 75.6767 23.9417 75.6767 25.3547C75.6862 26.7582 74.7402 27.7824 73.5294 27.7824ZM96.6015 17.2751H92.3731V29.129H94.142V24.634H96.611C98.5692 24.634 100.489 23.2115 100.489 20.9546C100.489 18.6976 98.5502 17.2751 96.6015 17.2751ZM96.6394 22.984H94.1326V18.9157H96.6394C97.9637 18.9157 98.7111 20.0157 98.7111 20.9451C98.7111 21.8744 97.9637 22.984 96.6394 22.984ZM107.556 21.2865C106.279 21.2865 104.954 21.8555 104.406 23.0977L105.976 23.7521C106.307 23.0978 106.932 22.8796 107.584 22.8796C108.502 22.8796 109.429 23.4297 109.438 24.4064V24.5297C109.117 24.3495 108.436 24.0745 107.594 24.0745C105.9 24.0745 104.188 25.0039 104.188 26.7393C104.188 28.3229 105.569 29.3471 107.121 29.3471C108.303 29.3471 108.965 28.8161 109.372 28.1902H109.429V29.11H111.132V24.5676C111.141 22.4624 109.571 21.2865 107.556 21.2865ZM107.338 27.7824C106.761 27.7824 105.957 27.4884 105.957 26.7772C105.957 25.8668 106.96 25.5159 107.83 25.5159C108.606 25.5159 108.975 25.6866 109.438 25.9142C109.306 27.0048 108.36 27.7824 107.338 27.7824ZM117.347 21.5425L115.322 26.6824H115.266L113.165 21.5425H111.264L114.414 28.7307L112.617 32.7231H114.461L119.314 21.5425H117.347ZM101.454 29.129H103.223V17.2751H101.454V29.129Z" stroke="#EDEDED" stroke-width="1.90956" mask="url(#path-10-inside-1_111_1866)"/>
<path d="M21.5428 19.5036C21.5422 19.4324 21.5275 19.3621 21.4996 19.2967C21.4716 19.2312 21.431 19.172 21.38 19.1225L10.7477 8.8073C10.6827 8.7442 10.6027 8.69866 10.5154 8.67493C10.428 8.6512 10.3361 8.65006 10.2482 8.67161C10.1603 8.69316 10.0792 8.7367 10.0127 8.79817C9.94608 8.85963 9.89613 8.93701 9.86748 9.02307C9.7942 9.23515 9.75587 9.45777 9.75397 9.6822V29.1672C9.75397 29.5708 9.86748 29.9498 10.0902 30.2933C10.1338 30.3601 10.1917 30.4164 10.2597 30.458C10.3277 30.4997 10.4041 30.5256 10.4833 30.5341C10.5625 30.5425 10.6426 30.5331 10.7178 30.5067C10.7929 30.4803 10.8613 30.4375 10.918 30.3813L21.3854 19.8879C21.4355 19.8374 21.4752 19.7774 21.5023 19.7115C21.5293 19.6455 21.543 19.5749 21.5428 19.5036Z" fill="#EDEDED"/>
<path d="M22.1498 18.3761C22.2505 18.4749 22.386 18.5298 22.5268 18.5287C22.6677 18.5277 22.8024 18.4709 22.9016 18.3707L25.6055 15.6601C25.6638 15.601 25.7078 15.5291 25.7338 15.4502C25.7599 15.3712 25.7673 15.2872 25.7556 15.2049C25.7439 15.1225 25.7133 15.044 25.6663 14.9755C25.6192 14.907 25.557 14.8503 25.4845 14.8099L12.8035 7.84827C12.689 7.79125 12.558 7.777 12.4339 7.80808C12.3099 7.83917 12.201 7.91355 12.1267 8.01789C12.0531 8.12281 12.0193 8.25061 12.0312 8.37831C12.0432 8.50602 12.1002 8.62525 12.192 8.71459L22.1498 18.3761Z" fill="#EDEDED"/>
<path d="M30.572 17.6024L27.4409 15.8827C27.3391 15.8274 27.2223 15.8064 27.1078 15.8228C26.9932 15.8393 26.8869 15.8923 26.8048 15.9739L23.6833 19.1032C23.6332 19.1536 23.5936 19.2134 23.5667 19.2792C23.5399 19.3451 23.5264 19.4156 23.527 19.4867C23.5276 19.5578 23.5423 19.6281 23.5702 19.6935C23.5981 19.7589 23.6387 19.818 23.6897 19.8675L26.8016 22.8873C26.884 22.9665 26.9894 23.0174 27.1026 23.0326C27.2158 23.0479 27.3308 23.0267 27.4312 22.9721L30.572 21.248C31.2466 20.8777 31.6493 20.196 31.6493 19.4252C31.6493 18.6545 31.2466 17.9728 30.572 17.6024Z" fill="#EDEDED"/>
<path d="M22.919 20.6146C22.818 20.5168 22.6827 20.4627 22.5423 20.4639C22.4019 20.4651 22.2676 20.5215 22.1683 20.6211L13.2589 29.5525C13.1643 29.6429 13.1061 29.7649 13.0953 29.8954C13.0845 30.026 13.1218 30.1559 13.2003 30.2607C13.2788 30.3654 13.3928 30.4376 13.5209 30.4636C13.649 30.4896 13.7821 30.4676 13.895 30.4017L25.4644 24.0509C25.5381 24.0106 25.6013 23.9535 25.6489 23.8841C25.6965 23.8148 25.7272 23.7351 25.7383 23.6517C25.7495 23.5682 25.7409 23.4833 25.7132 23.4039C25.6855 23.3244 25.6395 23.2526 25.5789 23.1942L22.919 20.6146Z" fill="#EDEDED"/>
</svg>
