<svg width="40" height="26" viewBox="0 0 40 26" fill="none" xmlns="http://www.w3.org/2000/svg">
<path d="M37.182 2.34644H2.80991V5.41752H37.182V2.34644Z" fill="#EDEDED"/>
<path d="M18.9223 8.80726L17.1347 17.256H14.9726L16.7605 8.80726H18.9223ZM28.0183 14.2627L29.1563 11.0901L29.811 14.2627H28.0183ZM30.4315 17.256H32.4308L30.6843 8.80726H28.84C28.4241 8.80726 28.0741 9.05111 27.919 9.42681L24.6746 17.256H26.9453L27.396 15.9944H30.1695L30.4315 17.256ZM24.7875 14.4977C24.797 12.2682 21.7384 12.1445 21.7589 11.1485C21.7657 10.8456 22.051 10.5229 22.6757 10.4406C22.9853 10.4002 23.8396 10.3677 24.808 10.8188L25.1868 9.02627C24.6666 8.83626 23.9972 8.65308 23.1644 8.65308C21.027 8.65308 19.5235 9.80084 19.5114 11.4456C19.4976 12.6621 20.5857 13.3403 21.4034 13.7452C22.2465 14.159 22.5289 14.4252 22.5251 14.7949C22.5194 15.3618 21.8524 15.6128 21.232 15.6223C20.1442 15.6395 19.5138 15.3251 19.0113 15.0883L18.6189 16.9403C19.125 17.1744 20.0575 17.3781 21.0226 17.3886C23.2948 17.3886 24.7807 16.2544 24.7875 14.4977ZM15.8329 8.80726L12.3298 17.256H10.0447L8.32061 10.5134C8.21615 10.0987 8.12513 9.94635 7.80747 9.77117C7.28727 9.48565 6.42908 9.21879 5.67421 9.05278L5.72538 8.80726H9.40446C9.873 8.80726 10.2946 9.12278 10.4019 9.66833L11.3126 14.5577L13.5616 8.80726H15.8329Z" fill="#EDEDED"/>
<path d="M37.182 20.6248H2.80991V23.6962H37.182V20.6248Z" fill="#EDEDED"/>
<rect x="1.37775" y="0.883396" width="37.2364" height="24.2758" stroke="#EDEDED" stroke-width="0.954779"/>
</svg>
