<svg width="58" height="28" viewBox="0 0 58 28" fill="none" xmlns="http://www.w3.org/2000/svg">
<path fill-rule="evenodd" clip-rule="evenodd" d="M13.0574 0.435547C13.0816 0.673765 13.0921 0.913199 13.0887 1.15266C13.0108 2.38238 12.4953 3.54298 11.6363 4.42251C11.244 4.83597 10.8095 5.19867 10.2748 5.41187C9.81738 5.59566 9.33907 5.63121 8.85706 5.66705L8.85086 5.6675L8.84931 5.6674C8.84785 5.66718 8.84639 5.66668 8.84492 5.66601C8.84346 5.66538 8.84199 5.66457 8.84053 5.66368L8.83562 5.66036C8.83296 5.65856 8.83037 5.65678 8.82788 5.65552C8.89675 2.8305 10.3143 1.00313 13.0574 0.435547ZM17.3137 7.43936L17.1412 7.59759C16.9796 7.74562 16.8179 7.89371 16.6587 8.0448C15.8953 8.7702 15.322 9.61373 15.1199 10.6658C14.9744 11.3569 14.9793 12.0713 15.1342 12.7603C15.2891 13.4492 15.5904 14.0963 16.0174 14.6574C16.4575 15.2564 16.9821 15.7538 17.6802 16.0418C17.7296 16.0618 17.7792 16.0805 17.8327 16.1007C17.868 16.114 17.905 16.1279 17.9448 16.1433C17.9285 16.1873 17.9127 16.2311 17.897 16.2748L17.8615 16.3745L17.8548 16.3933L17.8471 16.4154C17.7922 16.5705 17.7378 16.7237 17.6757 16.8743C17.107 18.2586 16.3675 19.5396 15.3578 20.6508C15.167 20.8563 14.9609 21.0469 14.7414 21.2211C14.0065 21.821 13.1797 22.0518 12.2472 21.7749C11.7824 21.6383 11.3231 21.4851 10.86 21.3421C10.3883 21.1819 9.89667 21.0887 9.39933 21.0652C8.77648 21.0504 8.20511 21.2378 7.62633 21.45C7.19313 21.6218 6.7502 21.7675 6.29978 21.8866C5.58964 22.0573 4.94655 21.8377 4.35865 21.4371C3.78004 21.026 3.28176 20.5114 2.88876 19.9189C1.86474 18.4705 1.0957 16.8563 0.615067 15.1466C0.183761 13.6295 0.0800234 12.0373 0.311 10.4767C0.518561 9.08584 1.03492 7.83069 2.00687 6.79333C3.01738 5.71906 4.26214 5.27698 5.7192 5.42281C6.44493 5.49481 7.1376 5.70614 7.83208 5.90918C7.96079 5.94694 8.09078 5.98052 8.22121 6.01272L8.32193 6.03733L8.42748 6.06287C8.47594 6.07457 8.5245 6.0863 8.57297 6.0982C8.61885 6.10945 8.66465 6.12085 8.71036 6.13252C9.12075 6.22542 9.54861 6.20405 9.94781 6.07069C10.248 5.98258 10.5462 5.88811 10.8438 5.79383L10.8456 5.79325C11.1148 5.70799 11.3835 5.6229 11.6529 5.54278C12.4885 5.28 13.3754 5.22677 14.2362 5.38774C15.368 5.60739 16.2627 6.21837 17.0114 7.07481C17.1033 7.18188 17.1952 7.29077 17.2871 7.39968C17.2971 7.41208 17.306 7.42535 17.3137 7.43936ZM27.8214 3.44417C26.3264 3.43593 24.8333 3.55295 23.3576 3.79395V21.6753H25.6828V14.4268C26.2174 14.5606 26.8587 14.5874 27.5532 14.5874C29.8251 14.5874 31.8287 13.9146 33.0607 12.5976C33.9692 11.658 34.4506 10.3687 34.4506 8.7315C34.4506 7.12287 33.8626 5.8068 32.8741 4.94757C31.803 3.98128 30.1181 3.44417 27.8214 3.44417ZM27.6065 12.7028C26.832 12.7028 26.1899 12.6529 25.6828 12.5182V5.47824C26.0833 5.37395 26.8587 5.29366 27.8738 5.29366C30.4397 5.29366 32.1226 6.44731 32.1226 8.8367C32.1226 11.3341 30.4121 12.7028 27.6065 12.7028ZM42.8361 21.6735L42.6524 20.0354H42.5724C41.8503 21.0561 40.4595 21.9689 38.6166 21.9689C35.9984 21.9689 34.6617 20.1166 34.6617 18.2366C34.6617 15.0987 37.4416 13.3775 42.4382 13.4043V13.1357C42.4382 12.0624 42.1443 10.1289 39.4986 10.1289C38.296 10.1289 37.0402 10.5054 36.1316 11.0961L35.5969 9.53915C36.6662 8.8405 38.2161 8.38459 39.8458 8.38459C43.8016 8.38459 44.7634 11.0961 44.7634 13.6996V18.5559C44.7634 19.6838 44.8167 20.7848 44.9766 21.6708L42.8361 21.6735ZM42.4888 15.0424C39.9238 14.9889 37.0108 15.4448 37.0108 17.9681C37.0108 19.4982 38.0259 20.2236 39.2294 20.2236C40.9123 20.2236 41.9853 19.1494 42.3528 18.0493C42.4357 17.807 42.4806 17.5533 42.486 17.2971L42.4888 15.0424ZM50.7165 16.3586L47.8842 8.6809H45.3193L50.0982 20.6501C50.2057 20.9454 50.259 21.1328 50.259 21.2675C50.259 21.4023 50.1827 21.5896 50.0753 21.8314C49.6287 22.8509 48.9517 23.7517 48.0983 24.4626C47.4919 24.9768 46.7935 25.3699 46.0405 25.6209L46.6284 27.607C47.2173 27.4999 48.3656 27.0975 49.514 26.0768C51.1179 24.6795 52.2663 22.399 53.9502 17.9423L57.4779 8.6809H54.9929L52.4234 16.305C52.216 16.9161 52.0305 17.5499 51.8598 18.1326C51.7681 18.4458 51.6807 18.7443 51.5966 19.0166H51.5433C51.3311 18.2376 51.0105 17.2178 50.7165 16.3586Z" fill="white"/>
</svg>
