<svg width="55" height="22" viewBox="0 0 55 22" fill="none" xmlns="http://www.w3.org/2000/svg">
<path fill-rule="evenodd" clip-rule="evenodd" d="M9.46476 3.86357C10.7466 3.84279 11.9854 4.32106 12.9139 5.19522L15.4789 2.66027C13.8513 1.15055 11.6962 0.321738 9.46476 0.347252C7.79949 0.347234 6.16691 0.804595 4.74914 1.66834C3.33137 2.53207 2.18401 3.76824 1.43512 5.23901L1.43519 5.24039C0.805743 6.47716 0.477936 7.84247 0.477936 9.22701C0.477936 10.6116 0.805743 11.9769 1.43519 13.2136L1.43512 13.2168C2.18401 14.6876 3.33137 15.9237 4.74914 16.7875C6.16691 17.6512 7.79949 18.1086 9.46476 18.1086V18.1055C11.8909 18.1055 13.9322 17.3189 15.4194 15.9616L15.4332 15.9615C17.1296 14.4155 18.1067 12.1312 18.1067 9.42862H18.096C18.0976 8.8215 18.0465 8.21535 17.9433 7.61686H9.46483V11.0426H14.3278C14.2287 11.5891 14.0185 12.1099 13.7099 12.5737C13.4012 13.0375 13.0006 13.4344 12.5322 13.7406V13.7513L12.5184 13.7407C11.7122 14.2782 10.674 14.5907 9.46476 14.5907C7.12105 14.5907 5.13159 13.0296 4.42619 10.9264L4.4201 10.9263C4.04352 9.82405 4.04352 8.62998 4.4201 7.52773V7.52635C5.13159 5.42169 7.12105 3.86207 9.4586 3.86207L9.46476 3.86357ZM26.2173 8.87885V3.48433V3.48283H29.5763C30.1167 3.4786 30.6463 3.63252 31.0984 3.92523C31.5505 4.21795 31.9049 4.63636 32.1171 5.12782C32.3294 5.61927 32.3898 6.16181 32.2909 6.68715C32.1919 7.2125 31.9381 7.69717 31.5612 8.08015C31.3043 8.3419 30.9952 8.54805 30.6535 8.68552C30.3119 8.82302 29.9451 8.88884 29.5763 8.87885H26.2173ZM26.2173 17.0363V10.7827H29.5381C30.9072 10.7837 32.0574 10.3449 32.9888 9.46616C33.444 9.04893 33.8071 8.54325 34.0555 7.98079C34.3038 7.41831 34.432 6.81118 34.432 6.19744C34.432 5.58371 34.3038 4.97658 34.0555 4.4141C33.8071 3.85162 33.444 3.34594 32.9888 2.92873C32.5312 2.49183 31.9907 2.14874 31.3986 1.91918C30.8064 1.68959 30.1741 1.57808 29.5381 1.59105H24.208V17.0363H26.2173ZM36.6413 14.5265C36.5253 14.3009 36.4655 14.0511 36.4669 13.798C36.4669 13.2243 36.7402 12.7431 37.2868 12.3546C37.8334 11.9661 38.5138 11.7718 39.3282 11.7718C40.4499 11.7708 41.3238 12.0154 41.9498 12.5056C41.9498 12.9177 41.8613 13.3251 41.6899 13.7007C41.5185 14.0763 41.2683 14.4116 40.9558 14.6842C40.3557 15.2768 39.5426 15.6101 38.6945 15.6113C38.1298 15.6218 37.5787 15.4394 37.1341 15.0949C36.9263 14.947 36.7574 14.7522 36.6413 14.5265ZM42.5742 7.29678C41.7192 6.51269 40.5487 6.12065 39.0625 6.12065C37.155 6.12065 35.7147 6.81013 34.7416 8.18909L36.5127 9.28973C37.1693 8.35466 38.0573 7.88712 39.177 7.88712C39.8937 7.87723 40.5877 8.13494 41.1207 8.60881C41.3824 8.82277 41.5926 9.09159 41.7363 9.3958C41.8799 9.70001 41.9533 10.032 41.9513 10.3677V10.8207C41.1787 10.3899 40.1954 10.1745 39.0015 10.1745C37.5988 10.1735 36.4791 10.4971 35.6424 11.1453C34.8057 11.7935 34.3874 12.6631 34.3874 13.7542C34.3782 14.2465 34.4804 14.7346 34.6865 15.1828C34.8925 15.631 35.1972 16.0281 35.5783 16.345C36.3707 17.0365 37.3601 17.3807 38.5388 17.3807C39.9221 17.3807 41.0286 16.7768 41.8582 15.569H41.9467V17.0365H43.8614V10.5217C43.8583 9.15586 43.4293 8.08087 42.5742 7.29678ZM54.9004 6.46179L48.193 21.6957H46.118L48.6082 16.3661L44.1957 6.46179H46.3806L49.5701 14.0576H49.6129L52.7154 6.46179H54.9004Z" fill="white"/>
</svg>
