<svg width="515" height="90" viewBox="0 0 515 90" fill="none" xmlns="http://www.w3.org/2000/svg">
<path d="M514.286 0H0V90H514.286V0Z" fill="#FF267E"/>
<path d="M166.421 43.2579H135.788V34.5482H172.901V22.645H117.82V67.645H135.788V55.4515H166.421V43.2579Z" fill="#000055"/>
<path d="M263.623 52.5482L247.423 22.645H227.099L253.608 67.645H273.638L300.147 22.645H280.118L263.623 52.5482Z" fill="#000055"/>
<path d="M356.996 44.7095C361.119 43.2579 363.77 39.1934 363.77 35.1289C363.77 27.8708 357.29 22.645 344.919 22.645H304.86V67.645H345.803C359.057 67.645 365.243 62.4192 365.243 54.8708C365.243 50.516 362.592 46.7418 356.996 44.7095ZM322.239 33.387H341.974C343.741 33.0966 345.508 34.5482 345.803 36.5805C346.097 38.3224 344.624 40.0644 342.563 40.3547C342.268 40.3547 342.268 40.3547 341.974 40.3547H322.239V33.387ZM343.446 56.9031H322.239V49.9353H343.446C345.214 49.645 346.981 51.0966 347.275 53.1289C347.57 54.8708 346.097 56.6128 344.035 56.9031C344.035 56.9031 343.741 56.9031 343.446 56.9031Z" fill="#000055"/>
<path d="M391.458 49.9353H422.091V40.0644H391.458V34.5482H425.331V22.645H373.785V67.645H426.215V55.4515H391.458V49.9353Z" fill="#000055"/>
<path d="M433.579 22.645V34.5482H453.314V67.645H471.281V34.5482H491.311V22.645H433.579Z" fill="#000055"/>
<path d="M193.52 22.645L167.01 67.645H185.862L189.396 60.9676H217.673L221.208 67.645H240.943L214.433 22.645H193.52ZM195.876 49.3547L203.829 34.8386L211.782 49.3547H195.876Z" fill="#000055"/>
<path d="M22.975 40.3549L38.8807 67.6452H58.9102L43.299 40.3549H22.975Z" fill="#000055"/>
<path d="M74.816 40.3549L58.9103 67.6452H79.2343L94.8455 40.3549H74.816Z" fill="#000055"/>
<path d="M58.9101 12.7742L43.299 40.3548H74.8159L58.9101 12.7742Z" fill="#000055"/>
</svg>
