<svg width="37" height="22" viewBox="0 0 37 22" fill="none" xmlns="http://www.w3.org/2000/svg">
<path fill-rule="evenodd" clip-rule="evenodd" d="M10.8889 21.6957C13.3131 21.6957 15.5512 20.9056 17.3534 19.5719C15.0673 17.4223 13.6422 14.3864 13.6422 11.0213C13.6422 7.65594 15.0673 4.62004 17.3534 2.47074C15.5512 1.13672 13.3131 0.34668 10.8889 0.34668C4.92567 0.34668 0.0915222 5.12589 0.0915222 11.0213C0.0915222 16.9165 4.92567 21.6957 10.8889 21.6957ZM25.5761 0.34668C23.1515 0.34668 20.9137 1.13672 19.1115 2.47074C21.3973 4.62004 22.8224 7.65594 22.8224 11.0213C22.8224 14.3864 21.3973 17.4223 19.1115 19.5719C20.9137 20.9056 23.1515 21.6957 25.5761 21.6957C31.539 21.6957 36.3731 16.9165 36.3731 11.0213C36.3731 5.12589 31.539 0.34668 25.5761 0.34668ZM21.6859 11.0213C21.6859 7.92972 20.3565 5.14509 18.2325 3.19577C16.1081 5.14509 14.7788 7.92972 14.7788 11.0213C14.7788 14.1126 16.1081 16.8972 18.2325 18.8466C20.3565 16.8972 21.6859 14.1126 21.6859 11.0213Z" fill="#EDEDED"/>
</svg>
